<?xml version="1.0" encoding="UTF-8"?>
<svg xmlns="http://www.w3.org/2000/svg" viewBox="0 0 512 512">
  <path fill="#FF8C00" d="M447.8 153.6c-2-6.3-6.8-11.1-13.1-13.1-22.6-7.2-45.7-13.1-69.2-17.6-4.3-0.9-8.8 0.3-12.1 3.1-3.3 2.8-5.2 6.9-5.2 11.2v15.5c0 13.8-11.2 25-25 25h-138c-13.8 0-25-11.2-25-25V118c0-4.3-1.9-8.4-5.2-11.2-3.3-2.8-7.8-4-12.1-3.1-23.5 4.5-46.6 10.4-69.2 17.6-6.3 2-11.1 6.8-13.1 13.1-7.2 22.6-13.1 45.7-17.6 69.2-0.9 4.3 0.3 8.8 3.1 12.1 2.8 3.3 6.9 5.2 11.2 5.2h15.5c13.8 0 25 11.2 25 25v138c0 13.8-11.2 25-25 25H58.1c-4.3 0-8.4 1.9-11.2 5.2-2.8 3.3-4 7.8-3.1 12.1 4.5 23.5 10.4 46.6 17.6 69.2 2 6.3 6.8 11.1 13.1 13.1 22.6 7.2 45.7 13.1 69.2 17.6 4.3 0.9 8.8-0.3 12.1-3.1 3.3-2.8 5.2-6.9 5.2-11.2v-15.5c0-13.8 11.2-25 25-25h138c13.8 0 25 11.2 25 25v15.5c0 4.3 1.9 8.4 5.2 11.2 3.3 2.8 7.8 4 12.1 3.1 23.5-4.5 46.6-10.4 69.2-17.6 6.3-2 11.1-6.8 13.1-13.1 7.2-22.6 13.1-45.7 17.6-69.2 0.9-4.3-0.3-8.8-3.1-12.1-2.8-3.3-6.9-5.2-11.2-5.2h-15.5c-13.8 0-25-11.2-25-25v-138c0-13.8 11.2-25 25-25h15.5c4.3 0 8.4-1.9 11.2-5.2 2.8-3.3 4-7.8 3.1-12.1-4.5-23.5-10.4-46.6-17.6-69.2zM329.8 313.7c0 8.7-7.1 15.8-15.8 15.8h-116c-8.7 0-15.8-7.1-15.8-15.8v-7.9c0-8.7 7.1-15.8 15.8-15.8h116c8.7 0 15.8 7.1 15.8 15.8v7.9zm0-68.4c0 8.7-7.1 15.8-15.8 15.8h-116c-8.7 0-15.8-7.1-15.8-15.8v-7.9c0-8.7 7.1-15.8 15.8-15.8h116c8.7 0 15.8 7.1 15.8 15.8v7.9z"/>
</svg>
